<svg width="61.716003" height="13.056000" viewBox="0 0 61.716 13.056" fill="none" xmlns="http://www.w3.org/2000/svg" xmlns:xlink="http://www.w3.org/1999/xlink">
	<desc>
			Created with Pixso.
	</desc>
	<defs/>
	<path id="room" d="M2.98798 12.672L2.98798 5.35199Q2.98798 5.09103 3.04395 4.84268L3.04395 4.84265L3.04401 4.84259Q3.14246 4.40579 3.414 4.008Q3.53027 3.83765 3.66583 3.6843Q4.02673 3.27588 4.52399 2.98801Q4.93866 2.74792 5.38422 2.65341L5.38422 2.65338L5.38422 2.65338L5.38434 2.65338Q5.67365 2.59201 5.97601 2.59201Q6.41998 2.59201 6.94202 2.73599C7.28998 2.832 7.59601 2.95999 7.85999 3.12L9.09601 0.588013C8.79199 0.411987 8.42603 0.269989 7.99799 0.161987Q7.35602 0 6.74402 0Q5.99695 0 5.32898 0.229828Q4.95618 0.358124 4.60797 0.558014Q4.5061 0.616516 4.40771 0.680481L4.40753 0.680603L4.40753 0.680603L4.40747 0.680634Q3.56799 1.22687 2.98798 2.172L2.98798 0.384003L0 0.384003L0 12.672L2.98798 12.672ZM19.8194 12.3438Q18.3074 13.056 16.46 13.056Q14.6126 13.056 13.1006 12.3439L13.1006 12.3438L13.1006 12.3438L13.1005 12.3438L13.1001 12.3436Q12.982 12.288 12.866 12.228Q11.882 11.7194 11.1493 10.9664L11.1492 10.9663L11.1492 10.9662L11.1492 10.9662Q10.689 10.4933 10.328 9.92401Q10.1355 9.62039 9.98254 9.29803Q9.39203 8.05307 9.39203 6.52802Q9.39203 4.94525 10.0202 3.67255L10.0212 3.67056L10.0212 3.67053Q10.1594 3.39075 10.328 3.12601Q10.6878 2.56088 11.1452 2.09067L11.1454 2.09045L11.1454 2.09039Q11.8777 1.33762 12.86 0.828003Q12.9235 0.795044 12.9877 0.763428L12.9877 0.763428L12.9896 0.762482L12.9896 0.762451Q14.5369 0 16.46 0Q18.3074 0 19.8193 0.712128L19.8194 0.712158Q19.9377 0.767883 20.054 0.828003Q21.0647 1.35037 21.8079 2.12833L21.808 2.12839Q22.2427 2.58347 22.586 3.12601C23.206 4.10599 23.516 5.23999 23.516 6.52802C23.516 7.80801 23.206 8.94 22.586 9.92401Q22.2322 10.4854 21.7813 10.9531L21.7812 10.9531Q21.0466 11.715 20.054 12.228Q19.9386 12.2876 19.8212 12.343L19.8194 12.3438ZM35.758 12.228C34.69 12.78 33.492 13.056 32.164 13.056Q30.3166 13.056 28.8046 12.3438L28.8028 12.343Q28.6854 12.2876 28.57 12.228C27.502 11.676 26.656 10.908 26.032 9.92401Q25.8395 9.62039 25.6865 9.298Q25.096 8.05307 25.096 6.52802Q25.096 4.94528 25.7242 3.67261L25.7242 3.67258L25.7253 3.67038Q25.8635 3.39069 26.032 3.12601Q26.3919 2.56079 26.8493 2.09052L26.8494 2.09048L26.8494 2.09045L26.8496 2.09024Q27.5818 1.33755 28.564 0.828003Q28.6247 0.796509 28.6859 0.766235L28.6936 0.762482L28.6936 0.762451Q30.241 0 32.164 0C33.492 0 34.69 0.276001 35.758 0.828003C36.826 1.38 37.67 2.146 38.29 3.12601C38.91 4.10599 39.22 5.23999 39.22 6.52802C39.22 7.80801 38.91 8.94 38.29 9.92401C37.67 10.908 36.826 11.676 35.758 12.228ZM44.772 4.896L44.772 12.672L41.784 12.672L41.784 0.384003L44.772 0.384003L44.772 1.85999C45.34 1.228 45.938 0.76001 46.566 0.455994C47.194 0.152008 47.884 0 48.636 0Q49.8851 0 50.8989 0.488434Q51.0635 0.56778 51.222 0.660004Q52.0128 1.12021 52.4797 1.80215Q52.6823 2.09818 52.824 2.436C53.376 1.65201 54.004 1.04999 54.708 0.630005C55.412 0.209991 56.228 0 57.156 0C58.036 0 58.818 0.182007 59.502 0.54599C60.186 0.910004 60.726 1.42999 61.122 2.10599C61.518 2.78201 61.716 3.59601 61.716 4.548L61.716 12.672L58.728 12.672L58.728 5.36401C58.728 4.452 58.49 3.73001 58.014 3.198Q57.777 2.93311 57.4865 2.75613Q56.9017 2.39999 56.1 2.39999Q55.3509 2.39999 54.7433 2.6933Q54.6891 2.71948 54.636 2.74799C54.204 2.98001 53.864 3.28799 53.616 3.672Q53.3858 4.02844 53.298 4.41705Q53.244 4.65643 53.244 4.90799L53.244 12.672L50.256 12.672L50.256 5.24399C50.256 4.38 50.024 3.69 49.56 3.17401Q49.3574 2.94873 49.1122 2.789Q48.5147 2.39999 47.664 2.39999C47.112 2.39999 46.618 2.51599 46.182 2.74799C45.746 2.98001 45.402 3.28601 45.15 3.66599C44.898 4.04599 44.772 4.45599 44.772 4.896ZM14.8389 10.1728Q14.6365 10.0871 14.444 9.978Q13.987 9.71906 13.629 9.36108L13.629 9.36099Q13.282 9.01401 13.028 8.57401Q12.9728 8.47836 12.9235 8.37976Q12.512 7.55676 12.512 6.52802Q12.512 5.4494 12.9551 4.60263L12.9551 4.6026Q12.9902 4.53558 13.028 4.47Q13.2873 4.02081 13.6435 3.67007Q13.9962 3.32275 14.444 3.07199Q14.6224 2.97211 14.8093 2.892L14.8094 2.89197L14.8094 2.89194L14.8094 2.89194Q15.5653 2.56799 16.46 2.56799Q17.4243 2.56799 18.2175 2.93631Q18.3522 2.99884 18.482 3.07199C19.078 3.40799 19.548 3.87399 19.892 4.47Q19.9297 4.53525 19.9646 4.60193L19.9647 4.60211L19.9648 4.60236L19.9649 4.6026Q20.408 5.44937 20.408 6.52802Q20.408 7.55673 19.9965 8.37973L19.9965 8.37976L19.9963 8.38019L19.9963 8.38022Q19.9471 8.47858 19.892 8.57401C19.548 9.17001 19.078 9.638 18.482 9.978Q18.3375 10.0604 18.187 10.1295L18.1868 10.1296Q17.4056 10.488 16.46 10.488Q15.5831 10.488 14.8395 10.1731L14.8394 10.1731L14.8389 10.1728ZM32.164 10.488Q31.287 10.488 30.5435 10.1731Q30.3408 10.0872 30.148 9.978C29.548 9.638 29.076 9.17001 28.732 8.57401Q28.6769 8.47858 28.6277 8.38019L28.6275 8.37976Q28.216 7.55676 28.216 6.52802Q28.216 5.44937 28.6591 4.6026Q28.6942 4.53558 28.732 4.47C29.076 3.87399 29.548 3.40799 30.148 3.07199Q30.3263 2.97214 30.5131 2.89206L30.5134 2.89194Q31.2693 2.56799 32.164 2.56799Q33.1282 2.56799 33.9215 2.93631L33.9219 2.93649Q34.0565 2.99896 34.186 3.07199C34.782 3.40799 35.252 3.87399 35.596 4.47C35.94 5.06601 36.112 5.75201 36.112 6.52802C36.112 7.29599 35.94 7.978 35.596 8.57401C35.252 9.17001 34.782 9.638 34.186 9.978Q34.0417 10.0603 33.8912 10.1294L33.8908 10.1296Q33.1096 10.488 32.164 10.488Z" clip-rule="evenodd" fill="#FFFFFF" fill-opacity="1.000000" fill-rule="evenodd"/>
</svg>
